<svg width="32" height="32" viewBox="0 0 32 32" fill="none" xmlns="http://www.w3.org/2000/svg">
<path d="M25 0.5H7C3.41015 0.5 0.5 3.41015 0.5 7V25C0.5 28.5899 3.41015 31.5 7 31.5H25C28.5899 31.5 31.5 28.5899 31.5 25V7C31.5 3.41015 28.5899 0.5 25 0.5Z" fill="white" stroke="#F8F8F8"/>
<path d="M19.9704 10.5833C20.4096 10.7636 20.81 11.0264 21.1489 11.356C21.4864 11.6835 21.756 12.0729 21.9429 12.5022C22.1364 12.9487 22.2346 13.4204 22.2332 13.9064V13.9084C22.2332 14.3625 22.1398 14.8512 21.9417 15.3651L21.9411 15.3667C21.777 15.7954 21.5327 16.2542 21.2113 16.7303C20.703 17.482 19.991 18.2847 19.0867 19.1131C17.5821 20.4902 16.0912 21.4424 16.04 21.4749L15.7332 21.6701L15.4265 21.4748L15.4154 21.468L15.4143 21.4673C15.409 21.464 15.3856 21.4492 15.3427 21.4212C15.2947 21.3899 15.2267 21.345 15.1414 21.2873C14.9708 21.1721 14.7319 21.0066 14.4474 20.7988C13.8772 20.3822 13.1289 19.7995 12.3798 19.1131C11.4752 18.2845 10.7633 17.4818 10.2549 16.7299C9.93462 16.2553 9.69119 15.796 9.52481 15.3651C9.32681 14.8513 9.23328 14.3624 9.23328 13.9084C9.23328 13.4208 9.33182 12.9482 9.52552 12.5016C9.71169 12.0725 9.98106 11.6834 10.3186 11.3566L10.3196 11.3556C10.6605 11.0243 11.0576 10.7641 11.4986 10.5829C11.9545 10.395 12.4372 10.3 12.9387 10.3C13.6336 10.3 14.3098 10.4888 14.8965 10.8439C15.0369 10.9288 15.1697 11.0218 15.2952 11.1228L15.734 11.476L16.1729 11.1228C16.2984 11.0218 16.4312 10.9287 16.5716 10.8438C17.1583 10.4887 17.8345 10.3 18.5294 10.3H18.531C19.0248 10.2989 19.5147 10.3955 19.9704 10.5833Z" stroke="#ECECEC" stroke-width="1.4"/>
</svg>
